<?xml version="1.0" encoding="utf-8"?>
<!-- Generator: Adobe Illustrator 17.0.0, SVG Export Plug-In . SVG Version: 6.00 Build 0)  -->
<!DOCTYPE svg PUBLIC "-//W3C//DTD SVG 1.1//EN" "http://www.w3.org/Graphics/SVG/1.1/DTD/svg11.dtd">
<svg version="1.1" id="Слой_1" xmlns="http://www.w3.org/2000/svg" xmlns:xlink="http://www.w3.org/1999/xlink" x="0px" y="0px"
	 width="158.152px" height="106.561px" viewBox="0 0 158.152 106.561" enable-background="new 0 0 158.152 106.561"
	 xml:space="preserve">
<g>
	<path d="M28.348,80.46c-4.71,0-8.543,3.832-8.543,8.544c0,4.71,3.833,8.544,8.543,8.544c4.712,0,8.544-3.834,8.544-8.544
		C36.892,84.292,33.06,80.46,28.348,80.46L28.348,80.46z M28.348,92.429c-1.888,0-3.425-1.536-3.425-3.425
		c0-1.889,1.538-3.425,3.425-3.425c1.89,0,3.425,1.536,3.425,3.425C31.774,90.893,30.238,92.429,28.348,92.429L28.348,92.429z
		 M28.348,92.429"/>
	<g>
		<defs>
			<rect id="SVGID_1_" x="0" y="0" width="158.152" height="106.561"/>
		</defs>
		<clipPath id="SVGID_2_">
			<use xlink:href="#SVGID_1_"  overflow="visible"/>
		</clipPath>
		<path clip-path="url(#SVGID_2_)" d="M129.993,80.46c-4.712,0-8.544,3.832-8.544,8.544c0,4.71,3.832,8.544,8.544,8.544
			c4.71,0,8.542-3.834,8.542-8.544C138.535,84.292,134.703,80.46,129.993,80.46L129.993,80.46z M129.993,92.429
			c-1.889,0-3.425-1.536-3.425-3.425c0-1.889,1.536-3.425,3.425-3.425c1.888,0,3.424,1.536,3.424,3.425
			C133.416,90.893,131.88,92.429,129.993,92.429L129.993,92.429z M129.993,92.429"/>
		<path clip-path="url(#SVGID_2_)" d="M157.858,48.979l-12.441-30.708c-0.392-0.966-1.33-1.598-2.372-1.598h-41.967V2.534
			c0-1.413-1.146-2.559-2.559-2.559H2.559C1.146-0.025,0,1.121,0,2.534v87.419c0,1.413,1.146,2.559,2.559,2.559h9.003
			c1.625,7.777,8.534,13.639,16.786,13.639c8.254,0,15.163-5.861,16.786-13.639h68.073c1.623,7.777,8.532,13.639,16.786,13.639
			c8.252,0,15.161-5.861,16.786-13.639h8.707c1.414,0,2.559-1.146,2.559-2.559V49.939C158.044,49.611,157.981,49.284,157.858,48.979
			L157.858,48.979z M11.279,87.394H5.118v-2.228h6.521C11.472,85.893,11.349,86.634,11.279,87.394L11.279,87.394z M28.348,101.032
			c-6.633,0-12.029-5.396-12.029-12.029c0-6.634,5.396-12.029,12.029-12.029c6.635,0,12.031,5.395,12.031,12.029
			C40.379,95.636,34.983,101.032,28.348,101.032L28.348,101.032z M95.96,87.394H45.419c-0.815-8.704-8.157-15.54-17.07-15.54
			c-6.175,0-11.596,3.282-14.615,8.192H5.118V5.093H95.96V87.394z M129.993,101.032c-6.634,0-12.031-5.396-12.031-12.029
			c0-6.634,5.396-12.029,12.031-12.029c6.633,0,12.029,5.395,12.029,12.029C142.022,95.636,136.625,101.032,129.993,101.032
			L129.993,101.032z M152.926,87.392h-5.865c-0.072-0.758-0.193-1.501-0.36-2.228h6.225V87.392z M152.926,80.048h-8.319
			c-3.019-4.91-8.44-8.192-14.615-8.192c-8.914,0-16.256,6.834-17.071,15.538h-11.844V21.792h40.243l11.606,28.647V80.048z
			 M152.926,80.048"/>
	</g>
	<path d="M137.987,24.181h-31.96c-1.414,0-2.559,1.144-2.559,2.559v24.661c0,1.415,1.145,2.559,2.559,2.559h41.952
		c0.851,0,1.646-0.421,2.123-1.128c0.475-0.706,0.568-1.603,0.248-2.391l-9.99-24.663C139.968,24.813,139.029,24.181,137.987,24.181
		L137.987,24.181z M108.585,48.842V29.298h27.677l7.917,19.545H108.585z M108.585,48.842"/>
	<path d="M147.978,61.979c-1.415,0-2.559,1.146-2.559,2.559v6.466c0,1.413,1.145,2.559,2.559,2.559c1.413,0,2.559-1.146,2.559-2.559
		v-6.466C150.537,63.126,149.391,61.979,147.978,61.979L147.978,61.979z M147.978,61.979"/>
	<path d="M10.161,15.103h80.755c1.413,0,2.559-1.146,2.559-2.559c0-1.413-1.146-2.559-2.559-2.559H10.161
		c-1.413,0-2.559,1.146-2.559,2.559C7.602,13.956,8.749,15.103,10.161,15.103L10.161,15.103z M10.161,15.103"/>
	<path d="M10.161,31.633h73.607c1.415,0,2.559-1.146,2.559-2.559c0-1.414-1.145-2.559-2.559-2.559H10.161
		c-1.413,0-2.559,1.145-2.559,2.559C7.602,30.487,8.749,31.633,10.161,31.633L10.161,31.633z M10.161,31.633"/>
	<path d="M90.295,26.592c-0.998,0.252-1.754,1.091-1.911,2.106c-0.155,1.01,0.343,2.047,1.218,2.569
		c0.975,0.581,2.254,0.448,3.077-0.34c0.883-0.848,1.04-2.228,0.377-3.256c0.017,0.025,0.025,0.037-0.012-0.02
		c-0.042-0.061-0.028-0.04-0.008-0.01C92.429,26.767,91.333,26.331,90.295,26.592L90.295,26.592z M90.295,26.592"/>
	<path d="M90.916,59.574H17.309c-1.414,0-2.559,1.147-2.559,2.559c0,1.415,1.145,2.559,2.559,2.559h73.608
		c1.413,0,2.559-1.144,2.559-2.559C93.476,60.72,92.329,59.574,90.916,59.574L90.916,59.574z M90.916,59.574"/>
	<path d="M8.352,60.323c-1.356,1.396-0.72,3.809,1.188,4.292c1.994,0.505,3.787-1.563,2.984-3.459
		C11.836,59.484,9.632,59.079,8.352,60.323L8.352,60.323z M8.352,60.323"/>
	<path d="M12.524,61.156C12.589,61.31,12.459,61,12.524,61.156L12.524,61.156z M12.524,61.156"/>
	<path d="M10.161,48.163h80.755c1.413,0,2.559-1.146,2.559-2.559c0-1.413-1.146-2.559-2.559-2.559H10.161
		c-1.413,0-2.559,1.146-2.559,2.559C7.602,47.017,8.749,48.163,10.161,48.163L10.161,48.163z M10.161,48.163"/>
</g>
</svg>
