<?xml version="1.0" encoding="utf-8"?>
<!-- Generator: Adobe Illustrator 17.0.0, SVG Export Plug-In . SVG Version: 6.00 Build 0)  -->
<!DOCTYPE svg PUBLIC "-//W3C//DTD SVG 1.1//EN" "http://www.w3.org/Graphics/SVG/1.1/DTD/svg11.dtd">
<svg version="1.1" id="Слой_1" xmlns="http://www.w3.org/2000/svg" xmlns:xlink="http://www.w3.org/1999/xlink" x="0px" y="0px"
	 width="38.398px" height="48px" viewBox="0 0 38.398 48" enable-background="new 0 0 38.398 48" xml:space="preserve">
<g>
	<path d="M31.199,20h-20c-0.441,0-0.801,0.359-0.801,0.801c0,0.441,0.36,0.801,0.801,0.801h20c0.441,0,0.801-0.36,0.801-0.801
		C32,20.359,31.641,20,31.199,20L31.199,20z M31.199,20"/>
	<path d="M11.199,15.199h8c0.441,0,0.801-0.356,0.801-0.801c0-0.441-0.359-0.796-0.801-0.796h-8c-0.441,0-0.801,0.355-0.801,0.796
		C10.398,14.844,10.758,15.199,11.199,15.199L11.199,15.199z M11.199,15.199"/>
	<path d="M31.199,26.398h-20c-0.441,0-0.801,0.359-0.801,0.801S10.758,28,11.199,28h20C31.641,28,32,27.641,32,27.199
		S31.641,26.398,31.199,26.398L31.199,26.398z M31.199,26.398"/>
	<path d="M31.199,32.801h-20c-0.441,0-0.801,0.355-0.801,0.801c0,0.441,0.36,0.797,0.801,0.797h20c0.441,0,0.801-0.355,0.801-0.797
		C32,33.156,31.641,32.801,31.199,32.801L31.199,32.801z M31.199,32.801"/>
	<path d="M31.199,39.199h-20c-0.441,0-0.801,0.359-0.801,0.801c0,0.441,0.36,0.801,0.801,0.801h20C31.641,40.801,32,40.441,32,40
		C32,39.559,31.641,39.199,31.199,39.199L31.199,39.199z M31.199,39.199"/>
	<path d="M34.398,11.668V0H0v44h4v4h34.398V15.668L34.398,11.668z M27.199,6.73l8.469,8.469h-8.469V6.73z M1.602,42.398V1.602
		h31.199v8.468L26.73,4H4v38.398H1.602z M5.602,46.398V5.602h20v11.199h11.199v29.598H5.602z M5.602,46.398"/>
</g>
</svg>
