<?xml version="1.0" encoding="utf-8"?>
<!-- Generator: Adobe Illustrator 17.0.0, SVG Export Plug-In . SVG Version: 6.00 Build 0)  -->
<!DOCTYPE svg PUBLIC "-//W3C//DTD SVG 1.1//EN" "http://www.w3.org/Graphics/SVG/1.1/DTD/svg11.dtd">
<svg version="1.1" id="Слой_1" xmlns="http://www.w3.org/2000/svg" xmlns:xlink="http://www.w3.org/1999/xlink" x="0px" y="0px"
	 width="46.398px" height="46.398px" viewBox="0 0 46.398 46.398" enable-background="new 0 0 46.398 46.398" xml:space="preserve">
<g>
	<path d="M16.801,11.199h-4v-4c0-0.441-0.36-0.801-0.801-0.801c-0.441,0-0.801,0.36-0.801,0.801v4h-4
		c-0.441,0-0.801,0.36-0.801,0.801c0,0.441,0.36,0.801,0.801,0.801h4v4c0,0.441,0.36,0.801,0.801,0.801
		c0.441,0,0.801-0.36,0.801-0.801v-4h4c0.441,0,0.801-0.36,0.801-0.801C17.602,11.559,17.242,11.199,16.801,11.199L16.801,11.199z
		 M16.801,11.199"/>
	<path d="M39.199,11.199h-9.598c-0.441,0-0.801,0.36-0.801,0.801c0,0.441,0.359,0.801,0.801,0.801h9.598
		C39.641,12.801,40,12.441,40,12C40,11.559,39.641,11.199,39.199,11.199L39.199,11.199z M39.199,11.199"/>
	<path d="M24,0H0v46.398h46.398V0H24z M1.602,1.602h20.796v20.796H1.602V1.602z M1.602,44.801V24h20.796v20.801H1.602z
		 M44.801,44.801H24V24h20.801V44.801z M24,22.398V1.602h20.801v20.796H24z M24,22.398"/>
	<path d="M29.602,37.602h9.598c0.441,0,0.801-0.359,0.801-0.801C40,36.359,39.641,36,39.199,36h-9.598
		c-0.441,0-0.801,0.359-0.801,0.801C28.801,37.242,29.16,37.602,29.602,37.602L29.602,37.602z M29.602,37.602"/>
	<path d="M29.602,32.801h9.598C39.641,32.801,40,32.441,40,32c0-0.441-0.359-0.801-0.801-0.801h-9.598
		c-0.441,0-0.801,0.359-0.801,0.801C28.801,32.441,29.16,32.801,29.602,32.801L29.602,32.801z M29.602,32.801"/>
	<path d="M16.566,29.836c-0.312-0.313-0.82-0.313-1.132,0L12,33.27l-3.434-3.434c-0.312-0.313-0.82-0.313-1.132,0
		c-0.313,0.313-0.313,0.816,0,1.129l3.433,3.434l-3.433,3.438c-0.313,0.313-0.313,0.816,0,1.129C7.59,39.121,7.797,39.199,8,39.199
		c0.203,0,0.41-0.078,0.566-0.234L12,35.531l3.434,3.434c0.156,0.156,0.363,0.234,0.566,0.234c0.203,0,0.41-0.078,0.566-0.234
		c0.313-0.313,0.313-0.816,0-1.129l-3.433-3.438l3.433-3.434C16.879,30.652,16.879,30.148,16.566,29.836L16.566,29.836z
		 M16.566,29.836"/>
</g>
</svg>
