<?xml version="1.0" encoding="utf-8"?>
<!-- Generator: Adobe Illustrator 17.0.0, SVG Export Plug-In . SVG Version: 6.00 Build 0)  -->
<!DOCTYPE svg PUBLIC "-//W3C//DTD SVG 1.1//EN" "http://www.w3.org/Graphics/SVG/1.1/DTD/svg11.dtd">
<svg version="1.1" id="Слой_1" xmlns="http://www.w3.org/2000/svg" xmlns:xlink="http://www.w3.org/1999/xlink" x="0px" y="0px"
	 width="33.027px" height="33.039px" viewBox="0 0 33.027 33.039" enable-background="new 0 0 33.027 33.039" xml:space="preserve">
<g>
	<path fill="#1E201D" d="M16.508,0c4.559,0,8.684,1.855,11.68,4.836c2.984,3,4.84,7.125,4.84,11.684s-1.855,8.687-4.84,11.684
		c-2.996,2.985-7.121,4.836-11.68,4.836S7.824,31.189,4.84,28.203C1.84,25.207,0,21.078,0,16.52S1.84,7.836,4.836,4.836
		C7.824,1.855,11.949,0,16.508,0L16.508,0z M24.926,15.617c0.496,0,0.891,0.406,0.891,0.902c0,0.496-0.394,0.902-0.891,0.902h-8.418
		c-0.332,0-0.621-0.191-0.774-0.457l-0.015-0.012l-0.012-0.027v-0.012l-0.012-0.027l-0.015-0.023v-0.016l-0.012-0.024l-0.012-0.011
		v-0.028l-0.011-0.024v-0.016l-0.016-0.023v-0.051l-0.012-0.016V5.766c0-0.496,0.395-0.891,0.891-0.891
		c0.492,0,0.899,0.395,0.899,0.891v9.851H24.926z M26.918,6.109c-2.664-2.668-6.348-4.304-10.41-4.304
		c-4.063,0-7.746,1.636-10.414,4.304C3.441,8.773,1.789,12.457,1.789,16.52c0,4.062,1.652,7.746,4.305,10.414
		c2.668,2.664,6.351,4.305,10.414,4.305c4.063,0,7.746-1.641,10.41-4.305c2.668-2.668,4.32-6.348,4.32-10.414
		C31.238,12.457,29.586,8.773,26.918,6.109L26.918,6.109z M26.918,6.109"/>
</g>
</svg>
