<?xml version="1.0" encoding="utf-8"?>
<!-- Generator: Adobe Illustrator 17.0.0, SVG Export Plug-In . SVG Version: 6.00 Build 0)  -->
<!DOCTYPE svg PUBLIC "-//W3C//DTD SVG 1.1//EN" "http://www.w3.org/Graphics/SVG/1.1/DTD/svg11.dtd">
<svg version="1.1" id="Слой_1" xmlns="http://www.w3.org/2000/svg" xmlns:xlink="http://www.w3.org/1999/xlink" x="0px" y="0px"
	 width="151.801px" height="151.801px" viewBox="0 0 151.801 151.801" enable-background="new 0 0 151.801 151.801"
	 xml:space="preserve">
<g>
	<path d="M144.819,61.789h-6.474c-1.604-7.148-4.394-13.884-8.309-20.069l4.573-4.575c2.723-2.723,2.723-7.151,0-9.874
		l-10.083-10.082c-1.319-1.319-3.071-2.044-4.936-2.044s-3.618,0.725-4.936,2.044l-4.575,4.575
		c-6.185-3.915-12.921-6.704-20.071-8.309V6.981C90.01,3.132,86.879,0,83.03,0H68.77c-3.85,0-6.982,3.132-6.982,6.981v6.473
		c-7.148,1.604-13.884,4.394-20.069,8.309l-4.575-4.573c-1.319-1.32-3.072-2.045-4.936-2.045c-1.865,0-3.617,0.725-4.936,2.044
		L17.19,27.272c-2.723,2.721-2.723,7.15,0,9.872l4.573,4.575c-3.915,6.185-6.704,12.921-8.309,20.069H6.981
		C3.132,61.789,0,64.921,0,68.77v14.26c0,3.848,3.132,6.98,6.981,6.98h6.473c1.605,7.15,4.394,13.886,8.309,20.071l-4.573,4.575
		c-1.319,1.318-2.045,3.071-2.045,4.936s0.727,3.618,2.045,4.936l10.082,10.083c1.319,1.319,3.071,2.045,4.936,2.045
		c1.864,0,3.618-0.727,4.936-2.045l4.575-4.575c6.185,3.916,12.921,6.704,20.07,8.31v6.474c0,3.85,3.132,6.981,6.98,6.981h14.26
		c3.85,0,6.981-3.132,6.981-6.981v-6.474c7.148-1.604,13.884-4.394,20.069-8.309l4.575,4.574c1.319,1.319,3.072,2.045,4.936,2.045
		c1.865,0,3.618-0.727,4.936-2.045l10.083-10.083c1.319-1.318,2.045-3.07,2.045-4.936c0-1.864-0.727-3.618-2.045-4.936l-4.573-4.575
		c3.915-6.185,6.704-12.922,8.309-20.07h6.474c3.85,0,6.981-3.131,6.981-6.981V68.77C151.801,64.921,148.669,61.789,144.819,61.789
		L144.819,61.789z M147.345,83.03c0,1.391-1.133,2.524-2.525,2.524h-8.282c-1.066,0-1.983,0.756-2.187,1.803
		c-1.527,7.835-4.56,15.162-9.015,21.775c-0.596,0.883-0.482,2.067,0.273,2.819l5.853,5.855c0.477,0.477,0.74,1.111,0.74,1.786
		s-0.263,1.308-0.74,1.786l-10.083,10.082c-0.477,0.476-1.111,0.74-1.786,0.74c-0.674,0-1.308-0.263-1.786-0.74l-5.854-5.854
		c-0.753-0.754-1.936-0.869-2.82-0.273c-6.613,4.456-13.939,7.489-21.775,9.015c-1.047,0.205-1.803,1.121-1.803,2.187v8.284
		c0,1.393-1.133,2.525-2.524,2.525H68.77c-1.392,0-2.526-1.133-2.526-2.525v-8.283c0-1.066-0.754-1.983-1.801-2.187
		c-7.836-1.528-15.162-4.561-21.775-9.015c-0.379-0.255-0.812-0.38-1.244-0.38c-0.575,0-1.146,0.222-1.577,0.653l-5.853,5.852
		c-0.477,0.478-1.111,0.74-1.786,0.74c-0.674,0-1.308-0.263-1.785-0.74L20.34,121.378c-0.477-0.477-0.74-1.111-0.74-1.786
		s0.263-1.308,0.74-1.786l5.853-5.855c0.754-0.752,0.869-1.935,0.272-2.819c-4.454-6.613-7.488-13.94-9.015-21.775
		c-0.205-1.047-1.121-1.802-2.188-1.802H6.981c-1.392,0-2.525-1.132-2.525-2.525V68.77c0-1.391,1.133-2.524,2.525-2.524h8.282
		c1.066,0,1.983-0.756,2.188-1.803c1.526-7.836,4.56-15.161,9.015-21.775c0.596-0.883,0.482-2.067-0.272-2.819l-5.853-5.854
		c-0.985-0.985-0.985-2.588,0-3.571L30.423,20.34c0.476-0.477,1.111-0.74,1.785-0.74c0.675,0,1.309,0.263,1.786,0.74l5.853,5.853
		c0.754,0.754,1.936,0.869,2.821,0.273c6.613-4.454,13.939-7.489,21.775-9.015c1.047-0.205,1.801-1.121,1.801-2.188V6.981
		c0-1.392,1.133-2.525,2.526-2.525h14.26c1.391,0,2.524,1.133,2.524,2.525v8.282c0,1.067,0.756,1.983,1.803,2.188
		c7.836,1.527,15.162,4.56,21.775,9.015c0.885,0.596,2.067,0.482,2.821-0.273l5.853-5.853c0.477-0.477,1.111-0.74,1.786-0.74
		c0.674,0,1.308,0.263,1.786,0.74l10.083,10.083c0.985,0.985,0.985,2.586,0,3.571l-5.853,5.853
		c-0.754,0.754-0.869,1.936-0.273,2.821c4.456,6.613,7.489,13.939,9.015,21.775c0.205,1.047,1.121,1.801,2.187,1.801h8.282
		c1.393,0,2.525,1.133,2.525,2.525V83.03z M147.345,83.03"/>
	<path d="M35.351,75.9c0-22.358,18.191-40.549,40.549-40.549c5.473,0,10.782,1.072,15.777,3.184c1.133,0.479,2.441-0.052,2.92-1.185
		c0.479-1.133-0.051-2.441-1.185-2.92c-5.547-2.346-11.439-3.535-17.512-3.535c-24.815,0-45.005,20.19-45.005,45.005
		c0,10.278,3.555,20.33,10.011,28.304c0.441,0.544,1.084,0.825,1.733,0.825c0.493,0,0.988-0.162,1.401-0.496
		c0.956-0.775,1.104-2.177,0.329-3.133C38.553,94.217,35.351,85.161,35.351,75.9L35.351,75.9z M35.351,75.9"/>
	<path d="M114.459,57.218c-1.133,0.479-1.664,1.785-1.187,2.92c2.109,4.991,3.178,10.295,3.178,15.761
		c0,22.359-18.191,40.551-40.551,40.551c-9.257,0-18.31-3.202-25.49-9.012c-0.956-0.775-2.359-0.627-3.133,0.329
		c-0.775,0.957-0.626,2.36,0.329,3.135c7.972,6.45,18.02,10.004,28.294,10.004c24.817,0,45.007-20.19,45.007-45.007
		c0-6.065-1.188-11.952-3.528-17.495C116.898,57.271,115.592,56.74,114.459,57.218L114.459,57.218z M114.459,57.218"/>
	<path d="M101.387,44.36c2.221,1.797,4.26,3.835,6.057,6.059c0.441,0.544,1.085,0.827,1.733,0.827c0.493,0,0.988-0.163,1.4-0.496
		c0.957-0.775,1.105-2.177,0.331-3.133c-1.993-2.466-4.254-4.727-6.719-6.722c-0.957-0.773-2.36-0.625-3.135,0.331
		C100.281,42.182,100.429,43.585,101.387,44.36L101.387,44.36z M101.387,44.36"/>
	<path d="M75.899,40.401c-19.573,0-35.498,15.925-35.498,35.498c0,19.574,15.925,35.5,35.498,35.5c19.575,0,35.5-15.926,35.5-35.5
		C111.4,56.327,95.474,40.401,75.899,40.401L75.899,40.401z M75.899,106.944c-17.117,0-31.042-13.926-31.042-31.044
		c0-17.118,13.925-31.042,31.042-31.042c17.118,0,31.044,13.926,31.044,31.042C106.944,93.017,93.017,106.944,75.899,106.944
		L75.899,106.944z M75.899,106.944"/>
</g>
</svg>
