<?xml version="1.0" encoding="utf-8"?>
<!-- Generator: Adobe Illustrator 17.0.0, SVG Export Plug-In . SVG Version: 6.00 Build 0)  -->
<!DOCTYPE svg PUBLIC "-//W3C//DTD SVG 1.1//EN" "http://www.w3.org/Graphics/SVG/1.1/DTD/svg11.dtd">
<svg version="1.1" id="Слой_1" xmlns="http://www.w3.org/2000/svg" xmlns:xlink="http://www.w3.org/1999/xlink" x="0px" y="0px"
	 width="48px" height="48px" viewBox="0 0 48 48" enable-background="new 0 0 48 48" xml:space="preserve">
<g>
	<path d="M15.684,17.039l-0.207,0.074l2.761,0.578c2.246,0.469,4.66,0.707,7.164,0.707c1.293,0,2.559-0.066,3.789-0.191
		c2.109-0.191,4.051-0.543,5.789-1.012l0.219-0.047l-0.027-0.011C40.625,15.613,44,12.914,44,10.398
		c0-3.539-6.883-7.199-18.398-7.199c-11.52,0-18.402,3.66-18.402,7.199C7.199,12.859,10.434,15.496,15.684,17.039L15.684,17.039z
		 M22.77,13.516c-1.301-0.422-2.04-1.149-2.2-2.153l-0.086-0.543l-0.539-0.117c-0.129-0.027-0.215-0.062-0.265-0.094l0.113-0.371
		c0.027-0.05,0.203-0.199,0.531-0.293l0.36-0.101L20.836,9.5c0.156-0.355,0.375-0.676,0.648-0.949
		c0.121-0.121,0.219-0.215,0.301-0.285c0.262-0.243,0.434-0.442,0.516-0.7c0.953,0.313,2.016,0.344,2.754,0.313
		c0.113-0.004,0.23-0.004,0.348-0.004c3.41,0,4.242,0.934,4.57,1.637l0.156,0.332l0.352,0.097c0.328,0.094,0.504,0.243,0.527,0.286
		l0.117,0.382c-0.051,0.032-0.137,0.067-0.266,0.094L30.32,10.82l-0.086,0.543c-0.16,1.004-0.899,1.731-2.199,2.153l-0.621,0.203
		l0.172,1.484c0.063,0.524,0.445,0.973,1,1.184l0.586,0.218c-0.191,0.02-0.391,0.028-0.586,0.047
		c-0.953,0.071-1.941,0.121-2.988,0.121c-1.391,0-2.7-0.07-3.926-0.195l0.527-0.191c0.567-0.207,0.957-0.66,1.02-1.188l0.168-1.481
		L22.77,13.516z M25.602,4.801c11.184,0,16.797,3.59,16.797,5.597c0,1.649-3.453,4.481-9.902,5.739l-3.336-1.25l-0.008-0.082
		c1.602-0.696,2.281-1.762,2.551-2.7c0.375-0.164,0.672-0.41,0.852-0.718c0.203-0.348,0.25-0.75,0.133-1.141l-0.152-0.492
		c-0.16-0.524-0.629-0.969-1.277-1.231c-1.184-2.007-3.887-2.25-5.855-2.25c-0.141,0-0.277,0.004-0.414,0.008
		c-0.894,0.039-1.703-0.058-2.281-0.269c-0.328-0.117-0.457-0.2-0.496-0.231c-0.332-0.246-0.762-0.211-1.039-0.074L20.691,5.98
		v0.497c0,0.152,0.008,0.335,0.043,0.539c0.004,0.011,0.004,0.023,0.008,0.035c-0.012,0.011-0.027,0.019-0.039,0.035
		c-0.094,0.086-0.215,0.191-0.355,0.34c-0.328,0.328-0.602,0.699-0.821,1.105c-0.64,0.266-1.097,0.707-1.257,1.223l-0.153,0.492
		c-0.117,0.391-0.074,0.793,0.133,1.141c0.18,0.308,0.477,0.554,0.852,0.718c0.269,0.938,0.949,2.004,2.55,2.7l-0.007,0.082
		l-3.29,1.187c-6.23-1.289-9.554-4.054-9.554-5.676C8.801,8.391,14.414,4.801,25.602,4.801L25.602,4.801z M25.602,4.801"/>
	<path d="M43.199,23.719v-0.203c2.523-1.774,4-3.961,4-6.356v-6.762C47.199,4.473,37.914,0,25.602,0C13.285,0,4,4.473,4,10.398
		v1.817c-2.609,1.75-4,3.879-4,6.183v6.762c0,2.637,1.789,5.023,4.801,6.887v5.113c0,6.078,9.488,10.84,21.598,10.84
		C38.512,48,48,43.238,48,37.16v-6.762C48,27.852,46.332,25.555,43.199,23.719L43.199,23.719z M46.398,30.398
		c0,5.117-9.344,9.602-20,9.602c-0.457,0-0.914-0.012-1.371-0.027c-0.133-0.004-0.27-0.012-0.402-0.016
		c-0.398-0.019-0.793-0.043-1.184-0.074c-0.253-0.02-0.503-0.043-0.757-0.066c-0.11-0.012-0.223-0.023-0.332-0.035
		c-6.582-0.707-12.18-3.082-14.629-6.078c-0.032-0.043-0.067-0.082-0.098-0.121c-0.035-0.047-0.07-0.094-0.105-0.144
		c1.125,0.48,2.351,0.906,3.664,1.262c3.55,2.336,9.078,3.672,15.214,3.672c10.844,0,18.402-4.199,18.402-7.973
		c0-1.109-0.676-2.215-1.961-3.223c0.024-0.059,0.035-0.117,0.055-0.176c0.027-0.082,0.059-0.164,0.078-0.246
		c0.027-0.098,0.051-0.195,0.074-0.293c0.02-0.082,0.039-0.168,0.055-0.254c0.02-0.098,0.031-0.195,0.043-0.293
		c0.012-0.086,0.024-0.172,0.031-0.258c0.004-0.023,0.008-0.051,0.008-0.074C44.84,26.703,46.398,28.312,46.398,30.398
		L46.398,30.398z M29.703,41.469c0.027,0,0.051-0.004,0.074-0.008c0.457-0.035,0.91-0.082,1.359-0.137
		c0.117-0.013,0.23-0.027,0.344-0.039c0.445-0.059,0.887-0.117,1.32-0.188v4.793c-1.035,0.168-2.106,0.297-3.199,0.383v-4.797
		C29.633,41.473,29.668,41.473,29.703,41.469L29.703,41.469z M34.398,40.805c0.047-0.012,0.09-0.024,0.133-0.031
		c0.433-0.09,0.859-0.188,1.273-0.293c0.055-0.012,0.105-0.027,0.16-0.043c0.281-0.07,0.563-0.145,0.836-0.223v4.789
		c-0.77,0.223-1.57,0.422-2.402,0.594V40.805z M38.398,39.707c0.043-0.016,0.086-0.031,0.129-0.043
		c0.063-0.023,0.117-0.047,0.18-0.066c0.332-0.121,0.652-0.246,0.973-0.371c0.09-0.039,0.18-0.074,0.27-0.113L40,39.094v4.77
		c-0.508,0.223-1.043,0.434-1.598,0.629v-4.785H38.398z M41.602,38.348c0.137-0.07,0.27-0.145,0.402-0.215
		c0.078-0.043,0.156-0.082,0.23-0.125c0.309-0.172,0.609-0.352,0.898-0.535c0.02-0.012,0.043-0.027,0.066-0.039v4.66
		c-0.488,0.344-1.02,0.68-1.602,0.992v-4.738H41.602z M9.602,37.434c0.496,0.316,1.035,0.617,1.597,0.906v4.746
		c-0.578-0.316-1.113-0.648-1.597-0.992V37.434z M4.801,25.434c0.023,0.012,0.043,0.027,0.066,0.039
		c0.289,0.184,0.59,0.363,0.899,0.535c0.074,0.043,0.152,0.082,0.23,0.125c0.133,0.074,0.266,0.145,0.402,0.215v4.051H5.25
		c-0.156-0.101-0.305-0.203-0.449-0.305V25.434z M8.324,27.223c0.317,0.129,0.637,0.254,0.969,0.375
		c0.062,0.019,0.117,0.043,0.18,0.063c0.043,0.016,0.086,0.031,0.129,0.047v4.785C9.043,32.293,8.512,32.086,8,31.863v-4.77
		l0.055,0.02C8.141,27.152,8.23,27.188,8.324,27.223L8.324,27.223z M12.195,28.481c0.414,0.105,0.84,0.199,1.27,0.293
		c0.047,0.008,0.09,0.02,0.133,0.031v4.793c-0.043-0.012-0.09-0.02-0.133-0.031c-0.43-0.09-0.856-0.188-1.27-0.293
		c-0.336-0.086-0.668-0.176-0.996-0.269v-4.793c0.274,0.082,0.555,0.156,0.832,0.227C12.086,28.453,12.141,28.469,12.195,28.481
		L12.195,28.481z M16.863,29.324c0.449,0.055,0.903,0.102,1.36,0.137c0.023,0.004,0.047,0.008,0.07,0.008
		c0.035,0.004,0.07,0.004,0.105,0.008v4.785c-0.55-0.039-1.097-0.09-1.636-0.152c-0.262-0.031-0.52-0.066-0.778-0.102
		c-0.265-0.039-0.523-0.082-0.785-0.125v-4.785c0.434,0.07,0.875,0.133,1.317,0.188C16.633,29.297,16.746,29.312,16.863,29.324
		L16.863,29.324z M21.602,29.602c0.535,0,1.066-0.02,1.597-0.04v4.806c-0.015,0-0.031,0-0.051,0
		c-0.511,0.019-1.027,0.031-1.546,0.031c-0.54,0-1.071-0.027-1.602-0.047v-4.785c0.035,0.004,0.07,0.004,0.105,0.004
		C20.602,29.59,21.098,29.602,21.602,29.602L21.602,29.602z M5.602,14.633c0.011,0.015,0.027,0.031,0.039,0.043
		c0.179,0.222,0.367,0.441,0.57,0.656c0.047,0.047,0.094,0.094,0.141,0.141c0.183,0.183,0.371,0.363,0.57,0.543
		c0.047,0.043,0.09,0.082,0.14,0.125c0.047,0.039,0.09,0.078,0.137,0.117v4.457c-1.027-1.102-1.597-2.305-1.597-3.555V14.633z
		 M8.801,17.434c0.023,0.011,0.043,0.027,0.066,0.039c0.289,0.183,0.59,0.363,0.899,0.535c0.074,0.043,0.152,0.082,0.23,0.125
		c0.133,0.074,0.266,0.144,0.402,0.215v4.738c-0.578-0.316-1.113-0.648-1.597-0.992V17.434z M12,19.094l0.055,0.019
		c0.086,0.039,0.175,0.075,0.269,0.11c0.317,0.129,0.637,0.254,0.969,0.375c0.062,0.019,0.117,0.043,0.18,0.062
		c0.043,0.016,0.086,0.031,0.129,0.047v4.785c-0.559-0.199-1.09-0.406-1.602-0.629V19.094z M15.199,20.211
		c0.274,0.082,0.555,0.156,0.832,0.227c0.055,0.015,0.11,0.031,0.163,0.042c0.414,0.106,0.84,0.2,1.27,0.293
		c0.047,0.008,0.09,0.02,0.133,0.032v4.792c-0.828-0.176-1.629-0.371-2.399-0.594V20.211z M19.199,21.098
		c0.434,0.07,0.875,0.129,1.321,0.183c0.113,0.016,0.226,0.031,0.343,0.043c0.449,0.051,0.903,0.102,1.36,0.137
		c0.023,0.004,0.047,0.004,0.074,0.008c0.031,0,0.066,0.004,0.101,0.008v4.796c-1.093-0.086-2.164-0.215-3.199-0.383V21.098z
		 M25.602,21.602c0.5,0,0.996-0.012,1.492-0.032c0.035,0,0.07,0,0.105-0.004v4.782c-0.531,0.023-1.063,0.051-1.598,0.051
		c-0.539,0-1.074-0.012-1.602-0.031v-4.801c0.035,0.004,0.07,0.004,0.105,0.004C24.602,21.59,25.098,21.602,25.602,21.602
		L25.602,21.602z M28.977,21.461c0.457-0.035,0.91-0.082,1.359-0.137c0.117-0.012,0.23-0.027,0.348-0.039
		c0.441-0.058,0.883-0.117,1.316-0.187v4.785c-0.301,0.047-0.594,0.102-0.902,0.145c-0.16,0.02-0.316,0.043-0.477,0.066
		c-0.602,0.07-1.211,0.125-1.82,0.172v-4.788c0.035,0,0.07-0.004,0.106-0.008C28.93,21.469,28.953,21.465,28.977,21.461
		L28.977,21.461z M35.004,20.48c0.055-0.011,0.109-0.027,0.164-0.042c0.281-0.071,0.559-0.149,0.832-0.227v4.793
		c-0.102,0.031-0.207,0.058-0.309,0.086h-0.004c-0.18,0.051-0.359,0.102-0.543,0.149c-0.441,0.113-0.887,0.219-1.344,0.316
		c-0.066,0.012-0.133,0.027-0.199,0.043v-4.792c0.043-0.012,0.086-0.024,0.133-0.032C34.164,20.68,34.59,20.586,35.004,20.48
		L35.004,20.48z M37.906,19.598c0.332-0.121,0.656-0.246,0.973-0.371c0.09-0.039,0.18-0.075,0.27-0.114l0.051-0.019v4.769
		c-0.508,0.223-1.043,0.434-1.598,0.629v-4.785c0.043-0.016,0.086-0.027,0.129-0.043C37.789,19.641,37.848,19.617,37.906,19.598
		L37.906,19.598z M41.434,18.008c0.309-0.176,0.609-0.352,0.898-0.535c0.023-0.012,0.043-0.028,0.066-0.043v4.66
		c-0.484,0.348-1.02,0.68-1.598,0.996v-4.738c0.137-0.071,0.269-0.145,0.402-0.215C41.281,18.09,41.359,18.047,41.434,18.008
		L41.434,18.008z M19.621,35.953c0.031,0.004,0.063,0.004,0.09,0.004c0.035,0.004,0.07,0.004,0.101,0.004l0.204,0.008
		c0.523,0.02,1.05,0.031,1.586,0.031c0.371,0,0.742-0.004,1.113-0.012c0.121-0.004,0.238-0.012,0.359-0.016
		c0.051,0,0.098-0.004,0.149-0.004c0.074-0.004,0.148-0.004,0.218-0.008c0.125-0.004,0.25-0.008,0.371-0.016
		c0.145-0.008,0.29-0.016,0.43-0.027c0.219-0.012,0.438-0.023,0.652-0.039c0.156-0.012,0.313-0.027,0.469-0.039
		c0.199-0.016,0.398-0.035,0.594-0.051c0.156-0.016,0.309-0.035,0.465-0.055c0.191-0.02,0.387-0.039,0.578-0.063
		c0.156-0.02,0.309-0.043,0.465-0.066c0.188-0.024,0.371-0.047,0.555-0.074c0.156-0.023,0.309-0.051,0.461-0.078
		c0.184-0.027,0.363-0.055,0.539-0.09c0.152-0.027,0.305-0.055,0.457-0.086c0.172-0.031,0.348-0.066,0.516-0.102
		c0.152-0.031,0.305-0.063,0.453-0.098c0.168-0.035,0.336-0.07,0.5-0.109c0.149-0.035,0.293-0.074,0.438-0.109
		c0.164-0.039,0.328-0.082,0.488-0.125c0.141-0.035,0.281-0.074,0.422-0.113c0.16-0.047,0.32-0.09,0.476-0.137
		c0.137-0.043,0.274-0.086,0.41-0.129c0.156-0.047,0.309-0.094,0.457-0.145c0.137-0.047,0.27-0.094,0.402-0.141
		c0.148-0.051,0.293-0.102,0.438-0.152c0.129-0.047,0.258-0.098,0.387-0.148c0.141-0.055,0.281-0.109,0.422-0.164
		c0.125-0.051,0.246-0.106,0.371-0.156c0.137-0.059,0.273-0.117,0.406-0.176c0.121-0.055,0.238-0.109,0.356-0.164
		c0.129-0.063,0.258-0.121,0.387-0.188c0.117-0.055,0.23-0.113,0.344-0.172c0.121-0.062,0.246-0.129,0.363-0.195
		c0.113-0.059,0.219-0.121,0.328-0.18c0.117-0.066,0.234-0.137,0.348-0.203c0.106-0.063,0.207-0.125,0.309-0.188
		c0.109-0.07,0.223-0.141,0.328-0.215c0.098-0.063,0.195-0.129,0.289-0.195c0.105-0.07,0.211-0.145,0.313-0.219
		c0.09-0.066,0.18-0.137,0.266-0.203c0.102-0.078,0.195-0.152,0.293-0.23c0.082-0.066,0.168-0.137,0.25-0.207
		c0.09-0.078,0.18-0.16,0.27-0.238c0.078-0.07,0.152-0.141,0.23-0.215c0.082-0.082,0.164-0.164,0.246-0.242
		c0.07-0.074,0.141-0.148,0.211-0.223c0.074-0.086,0.148-0.168,0.223-0.25c0.063-0.078,0.129-0.152,0.191-0.231
		c0.066-0.086,0.133-0.172,0.195-0.258c0.059-0.078,0.117-0.156,0.172-0.234c0.043-0.063,0.086-0.125,0.129-0.188
		c0.707,0.613,1.098,1.234,1.098,1.762c0,2.163-5.93,6.375-16.801,6.375c-3.29,0-5.984-0.375-8.141-0.898
		C18.707,35.91,19.164,35.934,19.621,35.953L19.621,35.953z M33.602,32.492v-4.816c0.051-0.02,0.101-0.039,0.152-0.055
		c0.293-0.105,0.594-0.207,0.875-0.32c0.195-0.074,0.379-0.164,0.57-0.246v4.809C34.691,32.086,34.156,32.297,33.602,32.492
		L33.602,32.492z M30.227,28.641c0.336-0.074,0.676-0.145,1.004-0.23c0.262-0.07,0.512-0.152,0.77-0.227v4.82
		c-0.77,0.223-1.57,0.418-2.402,0.594v-4.809C29.812,28.742,30.019,28.691,30.227,28.641L30.227,28.641z M36.801,31.086v-4.609
		c0.551-0.168,1.082-0.344,1.598-0.531v4.148C37.914,30.438,37.379,30.77,36.801,31.086L36.801,31.086z M25.59,29.406
		c0.262-0.027,0.52-0.066,0.781-0.098c0.387-0.047,0.773-0.086,1.156-0.145c0.16-0.023,0.313-0.059,0.473-0.082v4.809
		c-0.066,0.012-0.137,0.023-0.203,0.035c-0.238,0.035-0.481,0.07-0.723,0.105c-0.188,0.024-0.375,0.051-0.566,0.074
		c-0.414,0.051-0.832,0.094-1.254,0.129c-0.141,0.016-0.281,0.027-0.422,0.039c-0.008,0-0.023,0-0.031,0v-4.809
		C25.062,29.441,25.328,29.43,25.59,29.406L25.59,29.406z M41.602,25.16c0,0.605-0.141,1.203-0.395,1.781l-0.074,0.152
		c-0.238,0.492-0.566,0.968-0.965,1.43c-0.047,0.055-0.094,0.109-0.141,0.164c-0.008,0.008-0.02,0.016-0.027,0.023v-3.41
		c0.559-0.25,1.094-0.512,1.602-0.789V25.16z M12.801,39.09c0.511,0.219,1.047,0.422,1.597,0.613v4.789
		c-0.554-0.195-1.089-0.406-1.597-0.629V39.09z M16,40.207c0.773,0.223,1.57,0.426,2.398,0.598v4.793
		C17.57,45.426,16.77,45.227,16,45.004V40.207z M20,41.098c0.125,0.02,0.254,0.035,0.379,0.055c0.191,0.027,0.387,0.055,0.578,0.082
		c0.301,0.039,0.605,0.077,0.91,0.113c0.305,0.031,0.613,0.063,0.922,0.09c0.137,0.016,0.273,0.027,0.41,0.039v4.797
		c-1.097-0.082-2.164-0.211-3.199-0.379V41.098z M45.602,14.633v2.527c0,1.25-0.574,2.453-1.602,3.555v-4.457
		c0.047-0.035,0.09-0.078,0.137-0.117c0.047-0.039,0.094-0.082,0.141-0.125c0.199-0.176,0.391-0.356,0.57-0.539
		c0.047-0.047,0.094-0.098,0.141-0.145c0.203-0.211,0.391-0.43,0.57-0.652C45.57,14.66,45.586,14.645,45.602,14.633L45.602,14.633z
		 M25.602,1.602c11.215,0,20,3.863,20,8.796c0,5.118-9.348,9.602-20,9.602c-10.657,0-20-4.484-20-9.602
		C5.602,5.465,14.387,1.602,25.602,1.602L25.602,1.602z M4,14.188v2.972c0,0.184,0.008,0.367,0.027,0.547
		c0.004,0.063,0.016,0.121,0.024,0.184c0.015,0.121,0.031,0.242,0.054,0.363c0.012,0.07,0.032,0.141,0.051,0.211
		c0.024,0.105,0.047,0.215,0.078,0.32c0.02,0.078,0.047,0.153,0.075,0.227c0.031,0.097,0.062,0.199,0.101,0.297
		c0.031,0.078,0.067,0.156,0.098,0.23c0.039,0.098,0.082,0.191,0.129,0.289c0.035,0.074,0.078,0.152,0.117,0.227
		c0.051,0.093,0.101,0.183,0.152,0.277C4.953,20.406,5,20.484,5.047,20.559c0.058,0.089,0.117,0.179,0.18,0.265
		c0.05,0.078,0.105,0.153,0.16,0.227c0.066,0.086,0.133,0.172,0.199,0.258c0.059,0.074,0.121,0.148,0.184,0.222
		c0.07,0.082,0.144,0.168,0.222,0.25c0.067,0.071,0.133,0.145,0.203,0.215c0.078,0.082,0.164,0.164,0.246,0.246
		c0.071,0.067,0.145,0.137,0.219,0.207c0.09,0.078,0.18,0.16,0.27,0.239c0.078,0.066,0.156,0.132,0.238,0.199
		c0.094,0.078,0.195,0.156,0.293,0.234c0.086,0.067,0.168,0.129,0.254,0.191c0.105,0.079,0.211,0.153,0.32,0.227
		c0.086,0.063,0.172,0.125,0.262,0.184c0.113,0.078,0.234,0.152,0.351,0.226c0.09,0.055,0.18,0.112,0.274,0.172
		c0.125,0.078,0.258,0.152,0.39,0.227c0.09,0.051,0.176,0.101,0.266,0.152c0.164,0.09,0.332,0.176,0.5,0.266
		c0.067,0.031,0.125,0.066,0.192,0.098c0.234,0.117,0.472,0.23,0.718,0.344c0.082,0.039,0.172,0.074,0.258,0.113
		c0.164,0.074,0.328,0.145,0.5,0.215c0.106,0.043,0.215,0.086,0.32,0.129c0.157,0.063,0.309,0.125,0.469,0.184
		c0.117,0.043,0.235,0.086,0.356,0.129c0.152,0.055,0.304,0.109,0.464,0.164c0.122,0.043,0.25,0.082,0.375,0.125
		c0.157,0.051,0.313,0.102,0.473,0.148c0.129,0.039,0.262,0.078,0.395,0.117c0.16,0.047,0.32,0.094,0.48,0.137
		c0.137,0.039,0.274,0.074,0.41,0.109c0.164,0.043,0.328,0.086,0.492,0.125c0.141,0.035,0.282,0.066,0.426,0.102
		c0.168,0.035,0.336,0.074,0.504,0.113c0.145,0.031,0.289,0.059,0.434,0.09c0.176,0.035,0.347,0.066,0.523,0.102
		c0.145,0.027,0.293,0.055,0.442,0.078c0.179,0.031,0.359,0.063,0.539,0.09c0.148,0.023,0.297,0.047,0.445,0.07
		c0.184,0.027,0.371,0.055,0.559,0.078c0.148,0.02,0.3,0.039,0.449,0.059c0.191,0.023,0.387,0.043,0.578,0.066
		c0.152,0.016,0.297,0.031,0.449,0.047c0.199,0.019,0.402,0.035,0.602,0.051c0.148,0.012,0.297,0.027,0.445,0.039
		c0.211,0.012,0.426,0.024,0.637,0.039c0.14,0.008,0.281,0.016,0.426,0.023c0.031,0,0.058,0.004,0.089,0.004
		C22.891,27.984,22.246,28,21.602,28c-10.657,0-20-4.484-20-9.602C1.602,16.637,2.73,15.223,4,14.188L4,14.188z M1.602,25.16v-2.531
		c0.011,0.016,0.027,0.031,0.039,0.047c0.179,0.222,0.367,0.441,0.57,0.656c0.047,0.047,0.094,0.094,0.141,0.141
		c0.183,0.183,0.371,0.363,0.57,0.539c0.047,0.043,0.09,0.086,0.14,0.129c0.047,0.039,0.09,0.078,0.137,0.117v4.457
		C2.172,27.613,1.602,26.41,1.602,25.16L1.602,25.16z M6.398,37.16v-2.531C6.848,35.195,7.387,35.734,8,36.25v4.465
		C6.973,39.613,6.398,38.41,6.398,37.16L6.398,37.16z M24.801,46.367v-4.801c0.039,0.004,0.078,0.004,0.113,0.004
		c0.492,0.02,0.988,0.031,1.484,0.031c0.504,0,1-0.012,1.496-0.031c0.035,0,0.07,0,0.106-0.004v4.801
		c-0.527,0.019-1.063,0.031-1.602,0.031C25.863,46.398,25.328,46.387,24.801,46.367L24.801,46.367z M46.398,34.633v2.527
		c0,1.25-0.57,2.453-1.598,3.555v-4.457c0.047-0.035,0.09-0.078,0.137-0.117c0.047-0.039,0.094-0.082,0.141-0.125
		c0.199-0.176,0.387-0.355,0.566-0.539c0.047-0.047,0.098-0.098,0.141-0.145c0.207-0.211,0.395-0.43,0.574-0.652
		C46.371,34.66,46.387,34.645,46.398,34.633L46.398,34.633z M46.398,34.633"/>
</g>
</svg>
