<?xml version="1.0" encoding="utf-8"?>
<!-- Generator: Adobe Illustrator 17.0.0, SVG Export Plug-In . SVG Version: 6.00 Build 0)  -->
<!DOCTYPE svg PUBLIC "-//W3C//DTD SVG 1.1//EN" "http://www.w3.org/Graphics/SVG/1.1/DTD/svg11.dtd">
<svg version="1.1" id="Слой_1" xmlns="http://www.w3.org/2000/svg" xmlns:xlink="http://www.w3.org/1999/xlink" x="0px" y="0px"
	 width="94.079px" height="107.86px" viewBox="0 0 94.079 107.86" enable-background="new 0 0 94.079 107.86" xml:space="preserve">
<g>
	<g>
		<defs>
			<rect id="SVGID_1_" x="0" y="0" width="94.079" height="107.86"/>
		</defs>
		<clipPath id="SVGID_2_">
			<use xlink:href="#SVGID_1_"  overflow="visible"/>
		</clipPath>
		<path clip-path="url(#SVGID_2_)" d="M93.88,28.379V28.29c0-0.067,0-0.11-0.022-0.177v-0.089c0-0.088-0.022-0.154-0.044-0.221
			c0-0.022-0.022-0.066-0.022-0.089c-0.023-0.066-0.023-0.131-0.044-0.176c0-0.023-0.023-0.044-0.023-0.067
			c-0.022-0.088-0.066-0.154-0.088-0.243c0-0.023-0.022-0.044-0.022-0.067c-0.067-0.154-0.155-0.308-0.265-0.464
			c-0.023-0.022-0.023-0.044-0.044-0.044c-0.044-0.066-0.11-0.131-0.154-0.198l-0.177-0.177l-0.067-0.066
			c-0.066-0.044-0.11-0.111-0.176-0.155c-0.023-0.022-0.044-0.022-0.067-0.044c-0.044-0.043-0.088-0.066-0.154-0.11
			c-0.023-0.022-0.044-0.022-0.088-0.044c-0.023,0-0.023-0.022-0.044-0.022L48.431,0.442c-0.928-0.53-2.054-0.53-2.981,0
			L1.546,25.795l-0.067,0.044H1.458c-0.044,0.022-0.111,0.066-0.155,0.089c0,0-0.021,0-0.021,0.021
			c-0.044,0.023-0.089,0.066-0.133,0.11l-0.023,0.023c-0.043,0.044-0.087,0.066-0.131,0.11l-0.023,0.023
			c-0.044,0.044-0.089,0.066-0.11,0.11l-0.044,0.044c-0.023,0.044-0.067,0.067-0.088,0.111l-0.044,0.044
			c-0.023,0.043-0.067,0.066-0.088,0.11c-0.023,0.022-0.023,0.044-0.044,0.044c-0.022,0.045-0.044,0.066-0.066,0.11
			c-0.023,0.023-0.023,0.044-0.044,0.067c-0.023,0.044-0.044,0.066-0.067,0.11c0,0.023-0.021,0.044-0.021,0.044
			c-0.023,0.044-0.044,0.067-0.067,0.11c0,0.023-0.022,0.044-0.022,0.067c-0.023,0.044-0.044,0.089-0.044,0.11
			c0,0.023-0.023,0.044-0.023,0.067c-0.021,0.044-0.021,0.066-0.044,0.11c0,0.023-0.022,0.044-0.022,0.067
			c-0.023,0.044-0.023,0.088-0.044,0.131c0,0.023,0,0.044-0.023,0.067c0,0.044-0.021,0.089-0.021,0.133v0.066
			c0,0.044-0.023,0.088-0.023,0.133v0.067c0,0.044,0,0.087-0.022,0.131v50.971c0,1.06,0.574,2.054,1.502,2.583l43.969,25.375
			c0,0,0.023,0,0.023,0.022c0.11,0.067,0.221,0.111,0.331,0.156h0.022c0.111,0.044,0.2,0.066,0.309,0.11
			c0.023,0,0.067,0.023,0.089,0.023c0.088,0.022,0.177,0.044,0.265,0.044c0.022,0,0.066,0,0.089,0.022
			c0.11,0.023,0.243,0.023,0.353,0.023c0.111,0,0.244,0,0.354-0.023c0.023,0,0.067,0,0.088-0.022
			c0.088-0.023,0.177-0.023,0.265-0.044c0.022,0,0.066-0.023,0.088-0.023c0.11-0.021,0.221-0.066,0.308-0.11h0.023
			c0.11-0.044,0.221-0.111,0.331-0.156c0,0,0.023,0,0.023-0.022l43.969-25.375c0.927-0.529,1.502-1.523,1.502-2.583V28.423
			C93.88,28.4,93.88,28.379,93.88,28.379L93.88,28.379z M46.929,6.471l38.007,21.952l-15.813,9.143L31.449,15.415L46.929,6.471z
			 M43.948,99.402L5.941,77.449V33.568L43.948,55.52V99.402z M46.929,50.352L8.922,28.423L25.53,18.86l37.632,22.128L46.929,50.352z
			 M87.918,77.449L49.911,99.402V55.52l20.715-11.925c0.133-0.067,0.243-0.155,0.354-0.244l16.96-9.783v43.881H87.918z
			 M87.918,77.449"/>
	</g>
</g>
</svg>
