<?xml version="1.0" encoding="utf-8"?>
<!-- Generator: Adobe Illustrator 17.0.0, SVG Export Plug-In . SVG Version: 6.00 Build 0)  -->
<!DOCTYPE svg PUBLIC "-//W3C//DTD SVG 1.1//EN" "http://www.w3.org/Graphics/SVG/1.1/DTD/svg11.dtd">
<svg version="1.1" id="Слой_1" xmlns="http://www.w3.org/2000/svg" xmlns:xlink="http://www.w3.org/1999/xlink" x="0px" y="0px"
	 width="87.746px" height="77.143px" viewBox="0 0 87.746 77.143" enable-background="new 0 0 87.746 77.143" xml:space="preserve">
<g>
	<g>
		<defs>
			<rect id="SVGID_1_" x="0" y="-254.779" width="378" height="332.88"/>
		</defs>
		<clipPath id="SVGID_2_">
			<use xlink:href="#SVGID_1_"  overflow="visible"/>
		</clipPath>
		<path clip-path="url(#SVGID_2_)" d="M80.658,7.162c-4.594-4.595-10.677-7.107-17.17-7.107c-6.492,0-12.594,2.531-17.188,7.125
			l-2.4,2.4l-2.437-2.437C36.869,2.549,30.75,0,24.257,0C17.784,0,11.683,2.53,7.106,7.106C2.512,11.701-0.018,17.802,0,24.294
			c0,6.492,2.549,12.575,7.143,17.17l34.935,34.934c0.483,0.484,1.134,0.745,1.767,0.745c0.633,0,1.284-0.243,1.767-0.726
			l35.009-34.879c4.595-4.595,7.125-10.696,7.125-17.189C87.764,17.858,85.253,11.756,80.658,7.162L80.658,7.162z M77.087,37.985
			L43.845,71.097L10.678,37.93c-3.646-3.646-5.655-8.482-5.655-13.636c0-5.153,1.99-9.989,5.636-13.616
			c3.628-3.628,8.464-5.637,13.598-5.637c5.153,0,10.008,2.009,13.654,5.655l4.205,4.203c0.985,0.986,2.567,0.986,3.553,0
			l4.166-4.166c3.646-3.646,8.501-5.655,13.635-5.655c5.134,0,9.97,2.009,13.616,5.636c3.646,3.647,5.637,8.483,5.637,13.635
			C82.742,29.502,80.732,34.339,77.087,37.985L77.087,37.985z M77.087,37.985"/>
	</g>
</g>
</svg>
