<?xml version="1.0" encoding="utf-8"?>
<!-- Generator: Adobe Illustrator 17.0.0, SVG Export Plug-In . SVG Version: 6.00 Build 0)  -->
<!DOCTYPE svg PUBLIC "-//W3C//DTD SVG 1.1//EN" "http://www.w3.org/Graphics/SVG/1.1/DTD/svg11.dtd">
<svg version="1.1" id="Слой_1" xmlns="http://www.w3.org/2000/svg" xmlns:xlink="http://www.w3.org/1999/xlink" x="0px" y="0px"
	 width="70.976px" height="79.815px" viewBox="0 0 70.976 79.815" enable-background="new 0 0 70.976 79.815" xml:space="preserve">
<g>
	<path d="M21.348,40.654c-0.28-0.279-0.7-0.363-1.066-0.212c-0.365,0.152-0.603,0.508-0.603,0.904v17.351
		c0,0.54,0.438,0.978,0.977,0.978h17.351c0.396,0,0.753-0.239,0.904-0.604c0.152-0.365,0.068-0.786-0.212-1.065L21.348,40.654z
		 M21.634,57.719V43.706l14.013,14.014H21.634z M21.634,57.719"/>
	<path d="M70.689,6.023l-5.084-5.084c-0.382-0.382-1.001-0.381-1.383,0L34.844,30.319c-0.094,0.094-0.168,0.206-0.217,0.33
		l-3.22,8.086L18.448,25.776l2.325-2.325c0.382-0.382,0.382-1.001,0-1.383c-0.382-0.382-1.001-0.382-1.382,0l-2.325,2.325
		l-3.901-3.901V0.977c0-0.54-0.438-0.977-0.978-0.977H0.977C0.437,0,0,0.437,0,0.977v77.859c0,0.54,0.437,0.978,0.977,0.978h11.209
		c0.54,0,0.978-0.438,0.978-0.978V68.145h44.887l2.73,2.73c0.191,0.191,0.441,0.286,0.692,0.286c0.25,0,0.5-0.095,0.691-0.286
		c0.382-0.382,0.382-1.001,0-1.383l-29.27-29.269l8.086-3.22c0.123-0.05,0.236-0.123,0.33-0.217L70.689,7.406
		c0.183-0.183,0.286-0.432,0.286-0.691C70.976,6.455,70.873,6.206,70.689,6.023L70.689,6.023z M11.209,77.859H1.956v-1.74h1.679
		c0.54,0,0.977-0.437,0.977-0.977c0-0.54-0.437-0.977-0.977-0.977H1.956v-3.079h1.679c0.54,0,0.977-0.437,0.977-0.977
		c0-0.54-0.437-0.978-0.977-0.978H1.956v-3.078h1.679c0.54,0,0.977-0.437,0.977-0.977c0-0.54-0.437-0.977-0.977-0.977H1.956v-3.079
		h1.679c0.54,0,0.977-0.437,0.977-0.977c0-0.54-0.437-0.978-0.977-0.978H1.956v-3.078h1.679c0.54,0,0.977-0.437,0.977-0.977
		c0-0.54-0.437-0.977-0.977-0.977H1.956v-3.079h1.679c0.54,0,0.977-0.437,0.977-0.977c0-0.54-0.437-0.978-0.977-0.978H1.956v-3.078
		h1.679c0.54,0,0.977-0.437,0.977-0.977c0-0.54-0.437-0.978-0.977-0.978H1.956v-3.078h1.679c0.54,0,0.977-0.437,0.977-0.977
		c0-0.54-0.437-0.978-0.977-0.978H1.956v-3.078h1.679c0.54,0,0.977-0.437,0.977-0.977c0-0.54-0.437-0.978-0.977-0.978H1.956v-3.078
		h1.679c0.54,0,0.977-0.438,0.977-0.977c0-0.54-0.437-0.978-0.977-0.978H1.956v-3.078h1.679c0.54,0,0.977-0.437,0.977-0.977
		c0-0.54-0.437-0.978-0.977-0.978H1.956v-3.078h1.679c0.54,0,0.977-0.437,0.977-0.977c0-0.54-0.437-0.978-0.977-0.978H1.956v-3.078
		h1.679c0.54,0,0.977-0.438,0.977-0.977c0-0.541-0.437-0.978-0.977-0.978H1.956v-3.078h1.679c0.54,0,0.977-0.437,0.977-0.977
		c0-0.54-0.437-0.978-0.977-0.978H1.956V5.651h1.679c0.54,0,0.977-0.437,0.977-0.977c0-0.541-0.437-0.978-0.977-0.978H1.956V1.956
		h9.253V77.859z M13.164,66.189V23.258l4.758,4.758l-2.782,2.782c-0.382,0.382-0.382,1.001,0,1.383
		c0.191,0.191,0.441,0.286,0.692,0.286c0.25,0,0.5-0.096,0.691-0.286l2.782-2.782l2.177,2.177L18.7,34.357
		c-0.382,0.382-0.382,1.001,0,1.383c0.191,0.191,0.441,0.286,0.691,0.286c0.251,0,0.501-0.095,0.692-0.286l2.782-2.782l2.176,2.176
		l-2.782,2.782c-0.382,0.382-0.382,1.001,0,1.383c0.191,0.191,0.441,0.286,0.692,0.286c0.25,0,0.5-0.096,0.691-0.286l2.782-2.782
		l2.177,2.177l-2.782,2.782c-0.382,0.382-0.382,1.001,0,1.383c0.191,0.191,0.441,0.286,0.691,0.286c0.251,0,0.501-0.095,0.692-0.286
		l2.782-2.782l2.176,2.176l-2.782,2.782c-0.382,0.382-0.382,1.001,0,1.383c0.191,0.191,0.441,0.286,0.692,0.286
		c0.25,0,0.5-0.095,0.691-0.286l2.782-2.782l2.177,2.177l-2.782,2.782c-0.382,0.382-0.382,1.001,0,1.383
		c0.191,0.191,0.441,0.286,0.691,0.286c0.251,0,0.501-0.095,0.692-0.286l2.782-2.782l2.176,2.176l-2.782,2.782
		c-0.382,0.382-0.382,1.001,0,1.383c0.191,0.191,0.441,0.286,0.692,0.286c0.25,0,0.5-0.095,0.691-0.286l2.782-2.782l2.177,2.177
		l-2.782,2.782c-0.382,0.382-0.382,1.001,0,1.383c0.191,0.191,0.441,0.286,0.691,0.286c0.25,0,0.501-0.095,0.692-0.286l2.782-2.782
		l2.176,2.176l-2.782,2.782c-0.382,0.382-0.382,1.001,0,1.383c0.191,0.191,0.441,0.286,0.692,0.286c0.25,0,0.5-0.095,0.691-0.286
		l2.782-2.782l2.177,2.177l-2.782,2.782c-0.382,0.382-0.382,1.001,0,1.383c0.191,0.191,0.441,0.286,0.691,0.286
		c0.251,0,0.501-0.095,0.692-0.286l2.782-2.782l4.757,4.757L13.164,66.189L13.164,66.189z M39.459,33.552l24.311-24.31l1.159,1.159
		l-24.31,24.31L39.459,33.552z M38.077,32.169l-1.159-1.159l24.31-24.311l1.16,1.16L38.077,32.169z M35.894,32.752l2.983,2.983
		l-4.957,1.974L35.894,32.752z M66.312,9.017l-3.701-3.701l2.304-2.303l3.7,3.701L66.312,9.017z M66.312,9.017"/>
	<path d="M64.553,71.88c-0.382-0.382-1.001-0.382-1.383,0c-0.382,0.382-0.382,1.001,0,1.383l3.016,3.016
		c0.191,0.191,0.441,0.286,0.692,0.286c0.25,0,0.5-0.095,0.691-0.286c0.382-0.382,0.382-1.001,0-1.383L64.553,71.88z M64.553,71.88"
		/>
	<path d="M69.957,77.285c-0.382-0.382-1.001-0.382-1.383,0c-0.381,0.382-0.381,1.002,0.001,1.383l0.062,0.062
		c0.191,0.191,0.441,0.286,0.691,0.286c0.251,0,0.501-0.096,0.692-0.287c0.382-0.382,0.382-1.001-0.001-1.382L69.957,77.285z
		 M69.957,77.285"/>
	<path d="M38.685,5.133c0.25,0,0.501-0.096,0.692-0.286l0.155-0.156c0.382-0.381,0.382-1.001,0-1.382
		c-0.382-0.382-1.001-0.382-1.383,0l-0.155,0.156c-0.382,0.381-0.382,1.001,0,1.382C38.185,5.038,38.435,5.133,38.685,5.133
		L38.685,5.133z M38.685,5.133"/>
	<path d="M33.28,10.538c0.25,0,0.5-0.096,0.691-0.286l3.017-3.016c0.382-0.382,0.382-1.001,0-1.383
		c-0.382-0.382-1.001-0.382-1.383,0l-3.017,3.016c-0.382,0.382-0.382,1.001,0,1.383C32.779,10.443,33.03,10.538,33.28,10.538
		L33.28,10.538z M33.28,10.538"/>
	<path d="M27.875,15.943c0.25,0,0.5-0.095,0.691-0.286l3.017-3.016c0.382-0.382,0.382-1.001,0-1.383
		c-0.382-0.382-1.001-0.382-1.383,0l-3.017,3.016c-0.382,0.382-0.382,1.001,0,1.383C27.374,15.848,27.625,15.943,27.875,15.943
		L27.875,15.943z M27.875,15.943"/>
	<path d="M22.47,21.348c0.25,0,0.5-0.095,0.691-0.286l3.017-3.016c0.382-0.382,0.382-1.001,0-1.383
		c-0.382-0.382-1.001-0.382-1.383,0l-3.017,3.017c-0.382,0.381-0.382,1.001,0,1.382C21.97,21.253,22.22,21.348,22.47,21.348
		L22.47,21.348z M22.47,21.348"/>
</g>
</svg>
