<?xml version="1.0" encoding="utf-8"?>
<!-- Generator: Adobe Illustrator 17.0.0, SVG Export Plug-In . SVG Version: 6.00 Build 0)  -->
<!DOCTYPE svg PUBLIC "-//W3C//DTD SVG 1.1//EN" "http://www.w3.org/Graphics/SVG/1.1/DTD/svg11.dtd">
<svg version="1.1" id="Слой_1" xmlns="http://www.w3.org/2000/svg" xmlns:xlink="http://www.w3.org/1999/xlink" x="0px" y="0px"
	 width="87.483px" height="121.88px" viewBox="0 0 87.483 121.88" enable-background="new 0 0 87.483 121.88" xml:space="preserve">
<g>
	<g>
		<defs>
			<rect id="SVGID_1_" y="0" width="87.483" height="121.88"/>
		</defs>
		<clipPath id="SVGID_2_">
			<use xlink:href="#SVGID_1_"  overflow="visible"/>
		</clipPath>
		<path clip-path="url(#SVGID_2_)" d="M85.506,17.089l-5.668-0.033h-0.011c-0.011,0-0.022,0.002-0.031,0.002v-3.77
			c0-1.049-0.851-1.9-1.9-1.9h-5.699v-3.8c0-1.049-0.851-1.899-1.9-1.899H22.999c-0.241-3.183-2.907-5.7-6.151-5.7
			s-5.909,2.517-6.151,5.699H1.9c-1.049,0-1.9,0.851-1.9,1.9v96.895c0,1.049,0.851,1.9,1.9,1.9h3.799v5.7
			c0,1.049,0.851,1.899,1.9,1.899h3.8v5.7c0,1.049,0.851,1.9,1.899,1.9h72.197c1.049,0,1.9-0.851,1.9-1.9V18.988
			C87.395,17.943,86.552,17.094,85.506,17.089L85.506,17.089z M16.848,3.789c1.146,0,2.105,0.817,2.324,1.899h-4.647
			C14.743,4.606,15.701,3.789,16.848,3.789L16.848,3.789z M3.8,102.584V9.488h6.877v13.755c0,3.403,2.768,6.17,6.171,6.17
			c3.402,0,6.17-2.768,6.17-6.17v-8.542c0-1.05-0.851-1.9-1.9-1.9c-1.05,0-1.899,0.851-1.899,1.9v8.542
			c0,1.308-1.064,2.37-2.371,2.37c-1.308,0-2.372-1.062-2.372-2.37V9.488h53.919v93.096H3.8z M9.499,110.183v-3.8h60.796
			c1.049,0,1.9-0.85,1.9-1.899V15.189h3.8v94.995H9.499z M15.2,117.782v-3.799h62.696c1.049,0,1.9-0.851,1.9-1.9V20.855
			c0.006,0,0.013,0.001,0.021,0.001l3.778,0.022v96.904H15.2z M15.2,117.782"/>
	</g>
	<path d="M49.398,41.786H22.799c-1.05,0-1.9,0.851-1.9,1.9c0,1.05,0.851,1.9,1.9,1.9h26.599c1.048,0,1.899-0.851,1.899-1.9
		C51.297,42.637,50.446,41.786,49.398,41.786L49.398,41.786z M49.398,41.786"/>
	<path d="M49.398,49.387H22.799c-1.05,0-1.9,0.849-1.9,1.9c0,1.048,0.851,1.899,1.9,1.899h26.599c1.048,0,1.899-0.851,1.899-1.899
		C51.297,50.238,50.446,49.387,49.398,49.387L49.398,49.387z M49.398,49.387"/>
	<path d="M41.797,56.986H30.398c-1.049,0-1.9,0.851-1.9,1.9c0,1.05,0.851,1.899,1.9,1.899h11.399c1.05,0,1.9-0.849,1.9-1.899
		C43.697,57.837,42.847,56.986,41.797,56.986L41.797,56.986z M41.797,56.986"/>
</g>
</svg>
