<?xml version="1.0" encoding="utf-8"?>
<!-- Generator: Adobe Illustrator 17.0.0, SVG Export Plug-In . SVG Version: 6.00 Build 0)  -->
<!DOCTYPE svg PUBLIC "-//W3C//DTD SVG 1.1//EN" "http://www.w3.org/Graphics/SVG/1.1/DTD/svg11.dtd">
<svg version="1.1" id="Слой_1" xmlns="http://www.w3.org/2000/svg" xmlns:xlink="http://www.w3.org/1999/xlink" x="0px" y="0px"
	 width="41.602px" height="48px" viewBox="0 0 41.602 48" enable-background="new 0 0 41.602 48" xml:space="preserve">
<g>
	<path d="M12.801,39.199c-1.766,0-3.199,1.438-3.199,3.199c0,1.766,1.433,3.203,3.199,3.203c1.765,0,3.199-1.438,3.199-3.203
		C16,40.637,14.566,39.199,12.801,39.199L12.801,39.199z M12.801,44c-0.883,0-1.602-0.719-1.602-1.602
		c0-0.879,0.719-1.598,1.602-1.598c0.883,0,1.597,0.719,1.597,1.598C14.398,43.281,13.684,44,12.801,44L12.801,44z M12.801,44"/>
	<path d="M10.398,4h3.204c0.441,0,0.796-0.359,0.796-0.801c0-0.441-0.355-0.801-0.796-0.801h-3.204c-0.441,0-0.796,0.36-0.796,0.801
		C9.602,3.641,9.957,4,10.398,4L10.398,4z M10.398,4"/>
	<path d="M16,4h0.801c0.441,0,0.801-0.359,0.801-0.801c0-0.441-0.36-0.801-0.801-0.801H16c-0.441,0-0.801,0.36-0.801,0.801
		C15.199,3.641,15.559,4,16,4L16,4z M16,4"/>
	<path d="M41.602,9.602H27.199V3.523C27.199,1.582,25.621,0,23.676,0H3.523C1.582,0,0,1.582,0,3.523v40.954
		C0,46.418,1.582,48,3.523,48h20.153c1.945,0,3.523-1.582,3.523-3.523V26.398h14.402V9.602z M3.523,1.602h20.153
		c1.063,0,1.926,0.863,1.926,1.921v1.278H1.602V3.523C1.602,2.465,2.465,1.602,3.523,1.602L3.523,1.602z M23.676,46.398H3.523
		c-1.058,0-1.921-0.863-1.921-1.922v-6.078h23.999v6.078C25.602,45.535,24.738,46.398,23.676,46.398L23.676,46.398z M25.602,36.801
		H1.602V6.398h23.999v3.204H11.199v16.796h3.199V32l7.469-5.602h3.734V36.801z M40,24.801H21.332l-5.332,4v-4h-3.199V11.199H40
		V24.801z M40,24.801"/>
	<path d="M16.801,16.801h8c0.441,0,0.801-0.36,0.801-0.801c0-0.441-0.359-0.801-0.801-0.801h-8C16.359,15.199,16,15.559,16,16
		C16,16.441,16.359,16.801,16.801,16.801L16.801,16.801z M16.801,16.801"/>
	<path d="M16,20c0,0.441,0.359,0.801,0.801,0.801H36c0.441,0,0.801-0.36,0.801-0.801c0-0.441-0.359-0.801-0.801-0.801H16.801
		C16.359,19.199,16,19.559,16,20L16,20z M16,20"/>
</g>
</svg>
