<?xml version="1.0" encoding="utf-8"?>
<!-- Generator: Adobe Illustrator 17.0.0, SVG Export Plug-In . SVG Version: 6.00 Build 0)  -->
<!DOCTYPE svg PUBLIC "-//W3C//DTD SVG 1.1//EN" "http://www.w3.org/Graphics/SVG/1.1/DTD/svg11.dtd">
<svg version="1.1" id="Слой_1" xmlns="http://www.w3.org/2000/svg" xmlns:xlink="http://www.w3.org/1999/xlink" x="0px" y="0px"
	 width="169.289px" height="160.313px" viewBox="0 0 169.289 160.313" enable-background="new 0 0 169.289 160.313"
	 xml:space="preserve">
<g>
	<g>
		<defs>
			<rect id="SVGID_1_" x="0" y="0" width="169.289" height="160.313"/>
		</defs>
		<clipPath id="SVGID_2_">
			<use xlink:href="#SVGID_1_"  overflow="visible"/>
		</clipPath>
		<path clip-path="url(#SVGID_2_)" fill="#231F20" d="M94.685,118.272c0,6.179-4.133,10.812-10.563,10.812h-0.203
			c-6.189,0-10.443-4.634-10.443-10.812c0-6.388,4.385-10.771,10.646-10.771C90.426,107.501,94.56,111.885,94.685,118.272
			L94.685,118.272z M77.401,101.615h13.526l2.588-53.652H74.771L77.401,101.615z M166.617,146.869
			c-1.963,3.215-5.469,5.178-9.186,5.178H10.73c-3.836,0-7.427-2.088-9.352-5.428c-1.879-3.382-1.837-7.473,0.13-10.813
			L75.099,5.213C77.067,1.957,80.533,0,84.336,0h0.286c3.883,0.083,7.391,2.296,9.186,5.72l73.101,130.588
			C168.662,139.647,168.579,143.613,166.617,146.869L166.617,146.869z M157.431,141.275L84.336,10.729L10.771,141.275H157.431z
			 M157.431,141.275"/>
	</g>
</g>
</svg>
