<?xml version="1.0" encoding="utf-8"?>
<!-- Generator: Adobe Illustrator 17.0.0, SVG Export Plug-In . SVG Version: 6.00 Build 0)  -->
<!DOCTYPE svg PUBLIC "-//W3C//DTD SVG 1.1//EN" "http://www.w3.org/Graphics/SVG/1.1/DTD/svg11.dtd">
<svg version="1.1" id="Слой_1" xmlns="http://www.w3.org/2000/svg" xmlns:xlink="http://www.w3.org/1999/xlink" x="0px" y="0px"
	 width="92.801px" height="92.801px" viewBox="0 0 92.801 92.801" enable-background="new 0 0 92.801 92.801" xml:space="preserve">
<g>
	<path d="M46.398,68.801c12.403,0,22.403-10.082,22.403-22.402C68.801,34.078,58.719,24,46.398,24C34.078,24,24,34.078,24,46.398
		C24,58.719,34,68.801,46.398,68.801L46.398,68.801z M46.398,30.48c8.801,0,15.922,7.122,15.922,15.918
		c0,8.801-7.121,15.921-15.922,15.921c-8.796,0-15.918-7.12-15.918-15.921C30.48,37.602,37.602,30.48,46.398,30.48L46.398,30.48z
		 M46.398,30.48"/>
	<path d="M49.68,13.602V3.281C49.68,1.441,48.238,0,46.398,0c-1.839,0-3.277,1.441-3.277,3.281v10.321
		c0,1.839,1.438,3.277,3.277,3.277C48.238,16.879,49.68,15.441,49.68,13.602L49.68,13.602z M49.68,13.602"/>
	<path d="M43.121,79.199v10.32c0,1.839,1.438,3.281,3.277,3.281c1.84,0,3.282-1.442,3.282-3.281v-10.32
		c0-1.841-1.441-3.277-3.282-3.277C44.559,75.922,43.121,77.358,43.121,79.199L43.121,79.199z M43.121,79.199"/>
	<path d="M71.922,25.52l7.277-7.282c1.281-1.277,1.281-3.359,0-4.636c-1.277-1.282-3.359-1.282-4.641,0l-7.277,7.277
		C66,22.16,66,24.238,67.281,25.52c0.641,0.64,1.438,0.96,2.32,0.96C70.48,26.48,71.281,26.16,71.922,25.52L71.922,25.52z
		 M71.922,25.52"/>
	<path d="M13.602,79.199c0.636,0.641,1.437,0.961,2.32,0.961c0.797,0,1.68-0.32,2.316-0.961l7.282-7.277
		c1.281-1.281,1.281-3.363,0-4.641c-1.282-1.281-3.36-1.281-4.641,0l-7.277,7.277C12.32,75.84,12.32,77.922,13.602,79.199
		L13.602,79.199z M13.602,79.199"/>
	<path d="M92.801,46.398c0-1.84-1.441-3.278-3.281-3.278h-10.32c-1.84,0-3.277,1.438-3.277,3.278c0,1.839,1.438,3.281,3.277,3.281
		h10.32C91.281,49.68,92.801,48.237,92.801,46.398L92.801,46.398z M92.801,46.398"/>
	<path d="M3.281,49.68h10.321c1.839,0,3.277-1.442,3.277-3.281c0-1.84-1.438-3.278-3.277-3.278H3.281
		C1.441,43.121,0,44.559,0,46.398C0,48.237,1.52,49.68,3.281,49.68L3.281,49.68z M3.281,49.68"/>
	<path d="M76.879,80.16c0.801,0,1.68-0.32,2.32-0.961c1.281-1.277,1.281-3.359,0-4.641l-7.277-7.277
		c-1.281-1.281-3.363-1.281-4.641,0c-1.281,1.277-1.281,3.359,0,4.641l7.277,7.277C75.199,79.84,76.078,80.16,76.879,80.16
		L76.879,80.16z M76.879,80.16"/>
	<path d="M25.52,25.52c1.281-1.282,1.281-3.36,0-4.641l-7.282-7.277c-1.277-1.282-3.359-1.282-4.636,0
		c-1.282,1.277-1.282,3.359,0,4.636l7.277,7.282c0.641,0.64,1.441,0.96,2.32,0.96C24.078,26.48,24.879,26.16,25.52,25.52
		L25.52,25.52z M25.52,25.52"/>
</g>
</svg>
